HIERARCHY
ROOT hip
{
	OFFSET 0.000000 0.000000 0.000000 
	CHANNELS 6 Xposition Yposition Zposition Xrotation Zrotation Yrotation
	JOINT abdomen
	{
		OFFSET 0.000000 3.402643 0.000000 
		CHANNELS 3 Xrotation Zrotation Yrotation
		JOINT chest
		{
			OFFSET 0.000000 8.438565 -0.680529 
			CHANNELS 3 Xrotation Zrotation Yrotation
			JOINT neck
			{
				OFFSET 0.000000 10.207942 -0.272212 
				CHANNELS 3 Xrotation Zrotation Yrotation
				JOINT head
				{
					OFFSET 0.000000 3.130431 0.000000 
					CHANNELS 3 Xrotation Zrotation Yrotation
					End Site
					{
						OFFSET 0.000000 3.130435 0.000000 
					}
				}
			}
			JOINT lCollar
			{
				OFFSET 3.470700 6.669187 -0.816635 
				CHANNELS 3 Yrotation Zrotation Xrotation
				JOINT lShldr
				{
					OFFSET 3.198488 0.000000 0.000000 
					CHANNELS 3 Zrotation Yrotation Xrotation
					JOINT lForeArm
					{
						OFFSET 10.139888 0.000000 0.000000 
						CHANNELS 3 Yrotation Zrotation Xrotation
						JOINT lHand
						{
							OFFSET 8.370511 0.000000 0.000000 
							CHANNELS 3 Zrotation Yrotation Xrotation
							End Site
							{
								OFFSET 4.083176 0.000000 0.000000 
							}
						}
					}
				}
			}
			JOINT rCollar
			{
				OFFSET -3.470700 6.669187 -0.816635 
				CHANNELS 3 Yrotation Zrotation Xrotation
				JOINT rShldr
				{
					OFFSET -3.198488 0.000000 0.000000 
					CHANNELS 3 Zrotation Yrotation Xrotation
					JOINT rForeArm
					{
						OFFSET -10.139888 0.000000 0.000000 
						CHANNELS 3 Yrotation Zrotation Xrotation
						JOINT rHand
						{
							OFFSET -8.370511 0.000000 0.000000 
							CHANNELS 3 Zrotation Yrotation Xrotation
							End Site
							{
								OFFSET -4.083176 0.000000 0.000000 
							}
						}
					}
				}
			}
		}
	}
	JOINT lThigh
	{
		OFFSET 5.308129 -1.633274 1.361059 
		CHANNELS 3 Xrotation Zrotation Yrotation
		JOINT lShin
		{
			OFFSET -2.041588 -20.007561 0.000000 
			CHANNELS 3 Xrotation Zrotation Yrotation
			JOINT lFoot
			{
				OFFSET 0.000000 -19.190928 -1.224953 
				CHANNELS 3 Xrotation Yrotation Zrotation
				End Site
				{
					OFFSET 0.000000 -2.449906 4.627600 
				}
			}
		}
	}
	JOINT rThigh
	{
		OFFSET -5.308129 -1.633274 1.361059 
		CHANNELS 3 Xrotation Zrotation Yrotation
		JOINT rShin
		{
			OFFSET 2.041588 -20.007561 0.000000 
			CHANNELS 3 Xrotation Zrotation Yrotation
			JOINT rFoot
			{
				OFFSET 0.000000 -19.190928 -1.224953 
				CHANNELS 3 Xrotation Yrotation Zrotation
				End Site
				{
					OFFSET 0.000000 -2.449906 4.627600 
				}
			}
		}
	}
}
MOTION
Frames: 16
Frame Time: 0.016667
0.017563 50.754124 0.898793 -10.000679 -1.986933 7.025706 11.612752 -4.894095 -3.333187 6.870346 0.223253 6.298894 20.746849 7.685289 0.473681 -4.700213 -1.673532 -7.874558 0.303783 5.131751 24.622274 -68.397644 -1.516017 -13.491863 -55.239662 -25.059931 81.940353 -23.717634 -1.903438 -57.575279 -24.142874 -3.256265 22.970331 43.796440 5.686111 56.186489 73.095284 -28.157629 55.442951 35.870556 1.110803 -80.603600 21.472380 -1.121818 15.674682 0.234253 3.019483 1.488382 12.738882 -24.724001 4.433114 20.007530 3.417237 1.892573 -1.521510 -1.052683 -1.149779 15.743496 -4.296459 8.065108 
0.022954 50.742580 0.899634 -9.940958 -1.947710 7.132732 11.612752 -4.894095 -3.333187 6.825897 0.174723 6.289093 20.668888 7.704819 0.473683 -4.640975 -1.750961 -7.865093 -0.025877 5.304765 24.663269 -68.817932 -1.621536 -13.261584 -55.188236 -25.429188 81.519470 -23.581371 -2.378056 -57.376251 -24.200832 -3.265962 22.950956 43.928589 5.822036 56.241795 73.830856 -27.532305 55.395916 34.827251 0.739972 -80.492310 21.365305 -1.190266 15.664781 0.253667 3.096734 1.496749 12.874454 -25.021633 4.046895 19.822865 3.212310 1.833888 -1.274943 -0.709622 -1.015528 15.676851 -4.591343 7.927272 
-0.019962 50.700905 0.936933 -9.956475 -2.277940 6.977987 11.612752 -4.894095 -3.333187 6.742521 0.475564 6.367454 20.588406 7.577880 0.463990 -4.524641 -1.693275 -7.776948 0.017601 5.892836 24.655397 -69.511620 -1.847476 -12.867059 -54.742298 -25.819994 80.743317 -23.127251 -3.120792 -57.115623 -24.078323 -3.564474 22.822783 44.344524 5.786823 56.465069 74.626244 -27.144032 55.160065 34.588272 0.650166 -80.451012 21.468204 -0.720258 15.810524 0.234749 2.921445 1.480592 12.873239 -25.036324 3.608374 19.930285 3.681207 1.967178 -1.442872 -0.866764 -1.084641 15.681474 -4.354500 7.961071 
-0.062875 50.659233 0.974228 -9.980417 -2.608319 6.832843 11.612752 -4.894095 -3.333187 6.659837 0.776327 6.436144 20.498203 7.450942 0.454290 -4.399948 -1.625921 -7.679045 0.070168 6.484833 24.648546 -70.209129 -2.069806 -12.481157 -54.293247 -26.219452 79.956123 -22.669964 -3.874146 -56.861992 -23.948324 -3.859822 22.696404 44.764519 5.748167 56.683350 75.416275 -26.761118 54.922348 34.339603 0.562224 -80.408524 21.570215 -0.243172 15.969733 0.205059 2.745997 1.424576 12.913064 -25.034555 3.162129 20.048225 4.150146 2.102497 -1.609632 -1.023335 -1.143495 15.679540 -4.140024 7.980440 
-0.125330 50.619610 1.024264 -10.071528 -3.085162 6.562117 11.612752 -4.894095 -3.333187 6.624607 1.222453 6.544598 20.436657 7.236115 0.443333 -4.171990 -1.529558 -7.561359 0.366548 7.046093 24.608402 -70.780663 -2.231823 -12.161566 -53.589256 -26.662407 78.387619 -22.055937 -4.870559 -56.562508 -23.737040 -4.197675 22.565174 45.154736 5.681160 56.889996 76.117607 -26.422174 54.272316 34.535381 0.429001 -80.416916 21.792675 0.450927 16.180002 0.146147 2.415156 1.362372 12.884527 -24.781250 3.001509 20.613878 5.126496 2.376560 -2.474211 -1.878884 -1.399350 16.065443 -3.620482 8.081080 
-0.187779 50.579987 1.074295 -10.166822 -3.552748 6.291387 11.612752 -4.894095 -3.333187 6.582146 1.678115 6.643770 20.374056 7.031060 0.423936 -3.943635 -1.433137 -7.443950 0.662433 7.615349 24.549541 -71.363083 -2.392672 -11.829985 -52.907848 -27.117085 76.804985 -21.444338 -5.854724 -56.285145 -23.518459 -4.532867 22.435575 45.538197 5.627420 57.090466 76.826172 -26.088959 53.620197 34.740730 0.294131 -80.426582 22.024900 1.134463 16.399935 0.096848 2.112252 1.280302 12.829939 -24.509144 2.809217 21.190336 6.102999 2.662162 -3.328287 -2.731649 -1.623181 16.450542 -3.081828 8.161901 
-0.202552 50.578915 1.064237 -10.066741 -3.630538 6.271888 11.612752 -4.894095 -3.333187 6.494131 1.755646 6.663299 20.266199 6.972467 0.423929 -3.734511 -1.462155 -7.453715 0.650864 7.663793 24.551971 -71.502213 -2.434997 -11.756439 -52.250092 -27.363749 74.163918 -20.924648 -6.815082 -56.054192 -23.462130 -4.492722 22.455475 45.438450 5.789492 57.023769 77.192146 -25.717455 52.089207 35.037766 -0.161873 -80.469337 21.866714 1.232740 16.434841 0.185595 2.099507 1.327977 12.775160 -24.477020 2.849673 21.361729 6.502281 2.775964 -3.871088 -3.342909 -1.805048 16.759075 -2.864860 8.308444 
-0.217324 50.577839 1.054175 -9.976805 -3.718111 6.243268 11.612752 -4.894095 -3.333187 6.397541 1.842869 6.683440 20.158415 6.923641 0.423923 -3.524107 -1.500854 -7.463735 0.630390 7.708206 24.554581 -71.632637 -2.462668 -11.688940 -51.608013 -27.639633 71.523163 -20.409882 -7.775931 -55.823372 -23.414839 -4.456266 22.473686 45.343742 5.943174 56.958755 77.563194 -25.339174 50.572533 35.333912 -0.621687 -80.519890 21.718626 1.330290 16.488436 0.253174 2.073980 1.307132 12.766616 -24.418287 2.893476 21.540096 6.893735 2.899106 -4.412880 -3.951655 -1.991664 17.091368 -2.601574 8.453386 
-0.196772 50.581703 0.979840 -9.545219 -3.522893 6.398603 11.612752 -4.894095 -3.333187 6.097979 1.629615 6.643481 19.974648 7.001755 0.433626 -3.497095 -1.606931 -7.581152 0.378091 7.565008 24.603474 -71.705795 -2.512278 -11.645844 -51.048580 -27.636318 68.296608 -20.182848 -8.484326 -55.663296 -23.514517 -4.264317 22.554625 45.006420 6.274160 56.743050 77.819130 -25.139294 49.417538 35.814598 -0.923648 -80.588921 20.991896 0.978087 16.425314 0.467488 2.300841 1.338864 12.795958 -24.591028 3.145974 20.693012 6.552519 2.805740 -3.836380 -3.815519 -1.937573 16.907608 -2.889235 8.540313 
-0.176222 50.585560 0.905505 -9.112580 -3.327768 6.553996 11.612752 -4.894095 -3.333187 5.797590 1.406625 6.603640 19.789770 7.089643 0.433634 -3.469646 -1.712944 -7.698860 0.127376 7.421361 24.640944 -71.770035 -2.556776 -11.611903 -50.485157 -27.660408 65.067154 -19.960823 -9.179188 -55.504429 -23.627554 -4.067398 22.633400 44.674450 6.607937 56.530888 78.076607 -24.946611 48.275120 36.294357 -1.234633 -80.658348 20.262691 0.635459 16.408953 0.693109 2.541409 1.341703 12.837513 -24.771791 3.377702 19.847898 6.209183 2.708775 -3.261997 -3.680795 -1.871793 16.788111 -3.164072 8.619622 
-0.149758 50.515690 0.832405 -8.317292 -3.026893 6.571353 11.612752 -4.894095 -3.333187 5.128846 1.038115 6.544190 19.535864 7.089643 0.433634 -3.517560 -1.780482 -7.747963 0.170830 7.847513 24.632420 -72.365311 -2.717740 -11.278890 -50.027618 -27.640438 62.252468 -19.726870 -9.938807 -55.306313 -23.730371 -4.372702 22.487829 44.808193 6.878273 56.564762 79.033180 -25.643852 51.447315 37.850132 0.086243 -80.719772 19.154066 0.050732 16.291616 0.983189 2.864896 1.383139 12.699805 -24.745764 3.862905 18.378099 5.458631 2.464310 -2.196393 -3.034404 -1.634849 16.409113 -3.495897 8.516786 
-0.123306 50.445820 0.759321 -7.531584 -2.726040 6.589413 11.612752 -4.894095 -3.333187 4.459651 0.659827 6.475077 19.291723 7.089643 0.433634 -3.557230 -1.838369 -7.787317 0.219237 8.286478 24.624908 -72.962524 -2.871969 -10.943809 -49.567230 -27.651121 59.429443 -19.495180 -10.701474 -55.116455 -23.825834 -4.673901 22.343954 44.954777 7.145542 56.604435 80.044807 -26.296686 54.653687 39.398350 1.400151 -80.737999 18.051479 -0.535385 16.195520 1.275622 3.197106 1.416262 12.547132 -24.721067 4.353723 16.899784 4.696036 2.228185 -1.112594 -2.389630 -1.385128 16.011353 -3.800420 8.387679 
-0.183562 50.426147 0.810304 -7.705427 -2.980654 6.180251 11.612752 -4.894095 -3.333187 4.521323 0.853827 6.514401 19.298820 6.894345 0.423919 -3.628110 -1.714520 -7.298358 0.787050 8.535170 24.514297 -73.114555 -2.840970 -10.867093 -49.154350 -27.909870 57.386066 -19.458218 -11.653272 -54.767853 -23.536448 -4.935516 22.247900 45.277832 7.307669 56.756260 80.466408 -26.775860 56.604076 40.196281 2.647428 -80.700760 18.400181 -0.085236 16.297419 1.239772 2.959366 1.418081 12.180017 -24.067476 4.796132 16.869646 4.979026 2.294279 -0.635694 -2.264354 -1.291327 15.756194 -3.572269 8.110362 
-0.243806 50.406479 0.861281 -7.874661 -3.225791 5.770692 11.612752 -4.894095 -3.333187 4.583263 1.047797 6.553955 19.304911 6.708820 0.403353 -3.695696 -1.599968 -6.809428 1.345757 8.777958 24.411224 -73.266632 -2.809584 -10.790136 -48.758408 -28.172424 55.334045 -19.445639 -12.606301 -54.409111 -23.247221 -5.202125 22.161573 45.595692 7.477230 56.908421 80.903946 -27.243898 58.564503 40.998131 3.889971 -80.646996 18.758907 0.361826 16.421213 1.209858 2.695771 1.391003 11.823394 -23.427658 5.258061 16.853149 5.263417 2.381555 -0.157084 -2.131242 -1.226296 15.471463 -3.329446 7.826840 
-0.229736 50.412514 0.857512 -7.924701 -3.099051 5.848168 11.612752 -4.894095 -3.333187 4.611964 0.960518 6.534245 19.285173 6.679524 0.403352 -3.792353 -1.444820 -6.808899 1.253133 8.598746 24.423727 -73.056488 -2.892484 -10.899229 -48.605259 -28.394167 53.668606 -19.674053 -13.746022 -53.869587 -23.240725 -5.288171 22.124474 45.647781 7.545210 56.927959 81.136765 -27.757847 59.915081 41.210400 5.238567 -80.504738 18.773472 0.177834 16.356205 1.230399 2.804124 1.399686 11.709431 -23.317541 5.595070 16.879765 5.077035 2.335874 -0.108182 -2.047132 -1.217119 15.427581 -3.407784 7.937525 
-0.215664 50.418537 0.853745 -7.963623 -2.962627 5.925677 11.612752 -4.894095 -3.333187 4.639618 0.863530 6.514548 19.275200 6.650228 0.403351 -3.890383 -1.280001 -6.798661 1.146169 8.424542 24.447615 -72.845833 -2.977489 -10.999256 -48.444820 -28.615887 52.018932 -19.923601 -14.870434 -53.321663 -23.243412 -5.377892 22.084881 45.699867 7.613190 56.946289 81.384926 -28.259510 61.274002 41.429794 6.586164 -80.355354 18.796423 0.000947 16.322491 1.265421 2.884386 1.389088 11.584211 -23.199799 5.949784 16.902060 4.901881 2.281604 -0.059457 -1.952186 -1.198296 15.405008 -3.486038 8.078866 
